<svg width="24" height="24" viewBox="0 0 24 24" fill="none" xmlns="http://www.w3.org/2000/svg">
<path fill-rule="evenodd" clip-rule="evenodd" d="M16.5566 6.3999C16.4084 5.38169 15.8869 4.43974 15.0806 3.72303C14.1202 2.86935 12.8313 2.3999 11.5 2.3999C10.1687 2.3999 8.87982 2.86935 7.91943 3.72303C7.11251 4.44029 6.59082 5.38314 6.44312 6.40225L6.44345 6.3999H3.40002V21.5999H19.6V6.3999H16.5566ZM11.5 3.5999C10.4444 3.5999 9.4441 3.97331 8.71666 4.61992C8.15832 5.11623 7.79778 5.73909 7.66146 6.3999H15.3386C15.2024 5.73886 14.8419 5.11638 14.2834 4.61992C13.556 3.97331 12.5557 3.5999 11.5 3.5999ZM6.40002 7.99991H7.60002V9.5999H6.40002V7.99991ZM15.4 7.99991H16.6V9.5999H15.4V7.99991Z" fill="#282828"/>
</svg>
