<svg width="24" height="24" viewBox="0 0 24 24"  xmlns="http://www.w3.org/2000/svg">
<path fill-rule="evenodd" clip-rule="evenodd" d="M3.40002 6.3999H19.6V21.5999H3.40002V6.3999ZM4.60002 7.5999V20.3999H18.4V7.5999H4.60002Z" />
<path fill-rule="evenodd" clip-rule="evenodd" d="M11.5 3.5999C10.4444 3.5999 9.4441 3.97331 8.71666 4.61992C7.99153 5.26449 7.60002 6.1225 7.60002 6.9999V9.5999H6.40002V6.9999C6.40002 5.75557 6.95673 4.57876 7.91943 3.72303C8.87982 2.86935 10.1687 2.3999 11.5 2.3999C12.8313 2.3999 14.1202 2.86935 15.0806 3.72303C16.0433 4.57876 16.6 5.75557 16.6 6.9999V9.5999H15.4V6.9999C15.4 6.1225 15.0085 5.26449 14.2834 4.61992C13.5559 3.97331 12.5557 3.5999 11.5 3.5999Z" />
</svg>
