<svg width="17" height="20" viewBox="0 0 17 20" fill="none" xmlns="http://www.w3.org/2000/svg">
<path d="M1.09503 10.9557L1.0001 15.3917C0.997135 15.5549 1.05943 15.7092 1.17513 15.8249C1.28785 15.9377 1.43618 16 1.5934 16H1.60527L6.04021 15.905C6.19447 15.9021 6.33983 15.8398 6.44662 15.73L16.8265 5.34767C17.0578 5.11623 17.0578 4.73939 16.8265 4.50795L12.4864 0.166906C12.264 -0.0556354 11.8694 -0.0556354 11.6469 0.166906L1.27005 10.5492C1.16029 10.659 1.098 10.8044 1.09503 10.9557ZM12.0682 1.42501L15.5687 4.92633L12.9819 7.51375C12.9522 7.45143 12.9136 7.39209 12.8632 7.33868L9.51103 3.98572L12.0682 1.42501ZM2.2757 11.2198L8.66854 4.82248L12.0237 8.1784C12.0741 8.22885 12.1364 8.26742 12.1987 8.29709L5.77916 14.7211L2.20154 14.7983L2.2757 11.2198Z" />
<rect y="19" width="13" height="1" />
</svg>
