<svg width="25" height="24" viewBox="0 0 25 24" fill="none" xmlns="http://www.w3.org/2000/svg">
<path fill-rule="evenodd" clip-rule="evenodd" d="M12.3429 6.63814C12.0343 5.27922 11.3903 3.70042 10.4348 2.78194C9.94562 2.31183 9.33514 1.97876 8.62432 2.00106C7.91539 2.02329 7.21971 2.39556 6.55161 3.09081C6.30102 3.35159 6.02387 3.71322 5.88504 4.15251C5.73788 4.61821 5.75478 5.15194 6.07412 5.67131C6.37616 6.16253 6.91624 6.58798 7.70578 6.9598C7.71186 6.96267 7.71797 6.96553 7.72408 6.96839H3.05556C2.74873 6.96839 2.5 7.2488 2.5 7.59472V11.3526C2.5 11.6985 2.74873 11.9789 3.05556 11.9789H4.72222V21.3736C4.72222 21.7196 4.97096 22 5.27778 22H19.7222C20.029 22 20.2778 21.7196 20.2778 21.3736V11.9789H21.9444C22.2512 11.9789 22.5 11.6985 22.5 11.3526V7.59472C22.5 7.2488 22.2512 6.96839 21.9444 6.96839H17.2928C17.2982 6.9659 17.3036 6.96341 17.3089 6.96091C18.1062 6.58979 18.6538 6.16694 18.9666 5.68192C19.2968 5.16984 19.3329 4.6378 19.1953 4.16539C19.0657 3.72043 18.7914 3.35479 18.5378 3.09081C17.8679 2.39366 17.1674 2.02311 16.453 2.00104C15.7384 1.97897 15.12 2.30896 14.6208 2.77749C13.6442 3.69424 12.9763 5.27235 12.6598 6.63574C12.6332 6.75042 12.624 6.86188 12.6299 6.96839H12.3713C12.3774 6.86258 12.3688 6.75194 12.3429 6.63814ZM7.33729 3.90843C7.8797 3.34397 8.32201 3.16734 8.65779 3.1568C8.99168 3.14634 9.33262 3.29663 9.68086 3.63135C10.3856 4.30872 10.9513 5.58686 11.244 6.8283C9.83248 6.54402 8.84271 6.22606 8.16388 5.90637C7.46987 5.57953 7.1484 5.27314 7.01003 5.0481C6.88898 4.85122 6.88663 4.68432 6.94054 4.51372C7.0028 4.31673 7.14702 4.10643 7.33729 3.90843ZM16.8552 5.90541C16.1671 6.22572 15.1708 6.54368 13.7587 6.82785C14.0576 5.59175 14.6422 4.31463 15.3651 3.63607C15.7234 3.29965 16.0757 3.14618 16.4201 3.15681C16.7647 3.16746 17.2116 3.34581 17.7521 3.90843C17.9393 4.10324 18.0762 4.30954 18.132 4.50088C18.1798 4.66479 18.1756 4.83342 18.0439 5.03761C17.8948 5.26885 17.5589 5.57786 16.8552 5.90541ZM3.61111 10.7263V8.22102H11.9444V10.7263H3.61111ZM13.0556 10.7263V8.22102H21.3889V10.7263H13.0556ZM5.83333 11.9789H11.9444V20.7474H5.83333V11.9789ZM13.0556 11.9789V20.7474H19.1667V11.9789H13.0556Z" />
</svg>
