<svg width="24" height="24" viewBox="0 0 24 24"  xmlns="http://www.w3.org/2000/svg">
<path fill-rule="evenodd" clip-rule="evenodd" d="M2 8.68518C2 5.49559 4.56002 3 7.78466 3C9.38738 3 10.9287 3.64297 12.052 4.69435C13.1753 3.64297 14.7167 3 16.3194 3C19.544 3 22.1041 5.49559 22.1041 8.68518C22.1041 10.6338 21.2054 12.3557 19.7496 14.1028C18.3131 15.8267 16.2733 17.645 13.8719 19.7855L13.8057 19.8446L13.8044 19.8457L12.0506 21.4L10.298 19.835L10.2569 19.7984C7.84484 17.6529 5.79602 15.8305 4.35457 14.1018C2.89861 12.3557 2 10.6338 2 8.68518Z" />
</svg>
