<svg width="16" height="16" viewBox="0 0 16 16" fill="none" xmlns="http://www.w3.org/2000/svg">
<path d="M7.99995 9.53674e-07C5.82747 9.53674e-07 5.55489 0.00935555 4.70176 0.0484114C3.85026 0.0870609 3.26849 0.222543 2.75995 0.420264C2.23351 0.624496 1.78762 0.897885 1.34295 1.34296C0.89788 1.78763 0.624481 2.23392 0.420251 2.75996C0.222531 3.26891 0.0870598 3.85029 0.0484107 4.70179C0.00935477 5.55492 0 5.8275 0 8C0 10.1729 0.00935477 10.4451 0.0484107 11.2986C0.0870598 12.1501 0.222531 12.7315 0.420251 13.2404C0.624481 13.7665 0.89788 14.2128 1.34295 14.6574C1.78762 15.1021 2.23351 15.3759 2.75995 15.5801C3.26849 15.7779 3.85026 15.9129 4.70176 15.952C5.55489 15.991 5.82747 16 7.99995 16C10.1728 16 10.445 15.991 11.2986 15.952C12.1501 15.9129 12.7314 15.7779 13.2404 15.5801C13.7664 15.3759 14.2123 15.1021 14.6574 14.6574C15.102 14.2128 15.3754 13.7665 15.5801 13.2404C15.7778 12.7315 15.9128 12.1501 15.9519 11.2986C15.9906 10.4451 15.9999 10.1729 15.9999 8C15.9999 5.8275 15.9906 5.55492 15.9519 4.70179C15.9128 3.85029 15.7778 3.26891 15.5801 2.75996C15.3754 2.23392 15.102 1.78763 14.6574 1.34296C14.2123 0.897885 13.7664 0.624496 13.2404 0.420264C12.7314 0.222543 12.1501 0.0870609 11.2986 0.0484114C10.445 0.00935555 10.1728 9.53674e-07 7.99995 9.53674e-07ZM7.99995 1.44141C10.1362 1.44141 10.3893 1.44956 11.2326 1.4882C12.0125 1.5236 12.4361 1.65418 12.7184 1.76362C13.0915 1.90886 13.3579 2.08218 13.6378 2.36209C13.9182 2.64199 14.0911 2.90846 14.2363 3.28193C14.3461 3.56387 14.4763 3.98739 14.5117 4.7677C14.5504 5.61106 14.5585 5.86411 14.5585 8C14.5585 10.1363 14.5504 10.3893 14.5117 11.2327C14.4763 12.013 14.3461 12.4365 14.2363 12.7181C14.0911 13.0919 13.9182 13.358 13.6378 13.6383C13.3579 13.9178 13.0915 14.0915 12.7184 14.2364C12.4361 14.3462 12.0125 14.4764 11.2326 14.5122C10.3893 14.5504 10.1362 14.5586 7.99995 14.5586C5.86367 14.5586 5.61103 14.5504 4.76726 14.5122C3.98736 14.4764 3.56385 14.3462 3.28192 14.2364C2.90844 14.0915 2.64196 13.9178 2.36206 13.6383C2.08216 13.358 1.90885 13.0919 1.76361 12.7181C1.65418 12.4365 1.52358 12.013 1.48819 11.2327C1.44954 10.3893 1.44181 10.1363 1.44181 8C1.44181 5.86411 1.44954 5.61106 1.48819 4.7677C1.52358 3.98739 1.65418 3.56387 1.76361 3.28193C1.90885 2.90846 2.08216 2.64199 2.36206 2.36209C2.64196 2.08218 2.90844 1.90886 3.28192 1.76362C3.56385 1.65418 3.98736 1.5236 4.76726 1.4882C5.61103 1.44956 5.86408 1.44141 7.99995 1.44141Z" fill="#111111"/>
<path d="M7.99982 10.666C6.52708 10.666 5.33342 9.47194 5.33342 7.9992C5.33342 6.52646 6.52708 5.3328 7.99982 5.3328C9.47257 5.3328 10.6666 6.52646 10.6666 7.9992C10.6666 9.47194 9.47257 10.666 7.99982 10.666ZM7.99982 3.89139C5.73131 3.89139 3.8916 5.73028 3.8916 7.9992C3.8916 10.2681 5.73131 12.1074 7.99982 12.1074C10.2687 12.1074 12.108 10.2681 12.108 7.9992C12.108 5.73028 10.2687 3.89139 7.99982 3.89139Z" fill="#111111"/>
<path d="M13.2318 3.72932C13.2318 4.25983 12.8018 4.68945 12.2716 4.68945C11.7411 4.68945 11.3115 4.25983 11.3115 3.72932C11.3115 3.19921 11.7411 2.7696 12.2716 2.7696C12.8018 2.7696 13.2318 3.19921 13.2318 3.72932Z" fill="#111111"/>
</svg>
