<?xml version="1.0" encoding="UTF-8" standalone="no"?>
<svg
   xmlns:dc="http://purl.org/dc/elements/1.1/"
   xmlns:cc="http://creativecommons.org/ns#"
   xmlns:rdf="http://www.w3.org/1999/02/22-rdf-syntax-ns#"
   xmlns:svg="http://www.w3.org/2000/svg"
   xmlns="http://www.w3.org/2000/svg"
   viewBox="0 0 362.724 88.888931"
   height="88.888931"
   width="362.724"
   xml:space="preserve"
   id="svg2"
   version="1.1"><metadata
     id="metadata8"><rdf:RDF><cc:Work
         rdf:about=""><dc:format>image/svg+xml</dc:format><dc:type
           rdf:resource="http://purl.org/dc/dcmitype/StillImage" /></cc:Work></rdf:RDF></metadata><defs
     id="defs6"><clipPath
       id="clipPath18"
       clipPathUnits="userSpaceOnUse"><path
         id="path16"
         d="M 0,66.667 H 272.043 V 0 H 0 Z" /></clipPath></defs><g
     transform="matrix(1.3333333,0,0,-1.3333333,0,88.888933)"
     id="g10"><g
       id="g12"><g
         clip-path="url(#clipPath18)"
         id="g14"><g
           transform="translate(17.5809,36.8388)"
           id="g20"><path
             id="path22"
             style="fill:#1d1d1b;fill-opacity:1;fill-rule:nonzero;stroke:none"
             d="m 0,0 c 0,-3.747 3.038,-6.784 6.781,-6.784 3.743,0 6.781,3.037 6.781,6.784 0,3.741 -3.038,6.778 -6.781,6.778 C 3.038,6.778 0,3.741 0,0 m 18.083,0 c 0,-6.239 -5.058,-11.304 -11.302,-11.304 -6.244,0 -11.302,5.065 -11.302,11.304 0,6.244 5.058,11.299 11.302,11.299 6.244,0 11.302,-5.055 11.302,-11.299" /></g><g
           transform="translate(64.2626,48.1376)"
           id="g24"><path
             id="path26"
             style="fill:#1d1d1b;fill-opacity:1;fill-rule:nonzero;stroke:none"
             d="m 0,0 v -22.603 h -4.521 v 18.082 h -9.041 v -18.082 h -4.521 V 0 Z" /></g><path
           id="path28"
           style="fill:#1d1d1b;fill-opacity:1;fill-rule:nonzero;stroke:none"
           d="m 79.796,25.535 h -4.521 v 31.644 h 4.521 z" /><g
           transform="translate(108.8177,48.1337)"
           id="g30"><path
             id="path32"
             style="fill:#1d1d1b;fill-opacity:1;fill-rule:nonzero;stroke:none"
             d="m 0,0 0.005,-40.682 h -4.521 v 18.083 H -17.947 V 0.004 h 4.521 v -18.083 h 8.91 L -4.521,0 Z" /></g><g
           transform="translate(158.8192,15.7406)"
           id="g34"><path
             id="path36"
             style="fill:#1d1d1b;fill-opacity:1;fill-rule:nonzero;stroke:none"
             d="m 0,0 -8.264,-8.289 -3.184,3.218 8.259,8.261 z m 0.076,8.943 -12.781,-12.782 -3.191,3.212 12.783,12.782 z m -18.158,12.155 c 0,-3.746 3.037,-6.784 6.78,-6.784 3.744,0 6.781,3.038 6.781,6.784 0,3.746 -3.037,6.778 -6.781,6.778 -3.743,0 -6.78,-3.032 -6.78,-6.778 M 0,21.098 C 0,14.859 -5.058,9.794 -11.302,9.794 c -6.24,0 -11.301,5.065 -11.301,11.304 0,6.244 5.061,11.299 11.301,11.299 C -5.058,32.397 0,27.342 0,21.098" /></g><g
           transform="translate(173.5731,36.8388)"
           id="g38"><path
             id="path40"
             style="fill:#1d1d1b;fill-opacity:1;fill-rule:nonzero;stroke:none"
             d="m 0,0 c 0,-3.747 3.037,-6.784 6.78,-6.784 3.744,0 6.782,3.037 6.782,6.784 0,3.741 -3.038,6.778 -6.782,6.778 C 3.037,6.778 0,3.741 0,0 m 18.082,0 c 0,-6.239 -5.058,-11.304 -11.302,-11.304 -6.243,0 -11.301,5.065 -11.301,11.304 0,6.244 5.058,11.299 11.301,11.299 6.244,0 11.302,-5.055 11.302,-11.299" /></g><g
           transform="translate(206.2723,36.8388)"
           id="g42"><path
             id="path44"
             style="fill:#1d1d1b;fill-opacity:1;fill-rule:nonzero;stroke:none"
             d="m 0,0 c 0,-3.747 3.037,-6.784 6.781,-6.784 3.743,0 6.782,3.037 6.782,6.784 0,3.741 -3.039,6.778 -6.782,6.778 C 3.037,6.778 0,3.741 0,0 m 18.083,0 c 0,-6.239 -5.058,-11.304 -11.302,-11.304 -6.244,0 -11.302,5.065 -11.302,11.304 0,6.244 5.058,11.299 11.302,11.299 6.244,0 11.302,-5.055 11.302,-11.299" /></g><g
           transform="translate(238.9071,36.8388)"
           id="g46"><path
             id="path48"
             style="fill:#1d1d1b;fill-opacity:1;fill-rule:nonzero;stroke:none"
             d="m 0,0 c 0,-3.747 3.037,-6.784 6.78,-6.784 3.744,0 6.782,3.037 6.782,6.784 0,3.746 -3.038,6.778 -6.782,6.778 C 3.037,6.778 0,3.746 0,0 M 18.082,20.34 V 0 c 0,-6.239 -5.063,-11.304 -11.302,-11.304 -6.243,0 -11.301,5.065 -11.301,11.304 0,6.244 5.058,11.299 11.301,11.299 2.547,0 4.889,-0.835 6.782,-2.258 V 20.34 Z" /></g></g></g></g></svg>